<svg width="15" height="11" viewBox="0 0 15 11" fill="none" xmlns="http://www.w3.org/2000/svg">
<path d="M5.9375 10.9375H5.93031C5.77544 10.9359 5.62524 10.8843 5.50207 10.7904C5.37891 10.6965 5.28936 10.5653 5.24678 10.4164L3.95806 5.90625H0.90625V4.46875H4.5C4.65622 4.46866 4.80822 4.51948 4.93298 4.6135C5.05775 4.70753 5.14848 4.83964 5.19144 4.98984L5.96337 7.69234L8.12609 0.662968C8.17237 0.516863 8.2637 0.389152 8.387 0.298129C8.5103 0.207106 8.65925 0.157442 8.8125 0.15625C8.96394 0.153972 9.11208 0.200568 9.23495 0.289126C9.35781 0.377684 9.44886 0.503487 9.49459 0.647875L10.7675 4.46875H14.5625V5.90625H10.25C10.0991 5.90629 9.95199 5.85882 9.82957 5.77058C9.70714 5.68234 9.61559 5.5578 9.56791 5.41462L8.83981 3.22962L6.62462 10.4301C6.57942 10.577 6.48829 10.7056 6.36462 10.7969C6.24095 10.8883 6.09124 10.9375 5.9375 10.9375Z" fill="white"/>
</svg>
