<svg width="21" height="21" viewBox="0 0 21 21" fill="none" xmlns="http://www.w3.org/2000/svg">
<path fill-rule="evenodd" clip-rule="evenodd" d="M9.67404 0.341588C9.89312 0.122869 10.1902 0 10.5 0C10.8098 0 11.1069 0.122869 11.326 0.341588L18.3355 7.34167L20.6721 9.67503C20.8849 9.89507 21.0026 10.1898 21 10.4957C20.9973 10.8016 20.8744 11.0942 20.6578 11.3105C20.4412 11.5268 20.1482 11.6495 19.8419 11.6522C19.5356 11.6548 19.2405 11.5372 19.0201 11.3247L18.6778 10.9829V18.6666C18.6778 19.2855 18.4317 19.879 17.9935 20.3166C17.5553 20.7542 16.961 21 16.3413 21H12.8365C12.5267 21 12.2295 20.8771 12.0104 20.6583C11.7913 20.4395 11.6683 20.1427 11.6683 19.8333V16.3333H9.33174V19.8333C9.33174 20.1427 9.20865 20.4395 8.98956 20.6583C8.77047 20.8771 8.47332 21 8.16348 21H4.65869C4.03901 21 3.4447 20.7542 3.00652 20.3166C2.56834 19.879 2.32217 19.2855 2.32217 18.6666V10.9829L1.97987 11.3247C1.75953 11.5372 1.46442 11.6548 1.15811 11.6522C0.851795 11.6495 0.558781 11.5268 0.342176 11.3105C0.125571 11.0942 0.00270595 10.8016 4.41634e-05 10.4957C-0.00261763 10.1898 0.115137 9.89507 0.327945 9.67503L2.66447 7.34167L9.67404 0.341588Z" fill="white"/>
</svg>
