<svg width="18" height="18" viewBox="0 0 18 18" fill="none" xmlns="http://www.w3.org/2000/svg">
<path d="M4.86226 2.7435C4.72582 2.59292 4.56021 2.47163 4.37548 2.38699C4.19075 2.30235 3.99075 2.25613 3.78761 2.25113C3.58447 2.24613 3.38244 2.28245 3.19376 2.35789C3.00509 2.43334 2.83371 2.54633 2.69003 2.69001C2.54635 2.8337 2.43335 3.00507 2.35791 3.19375C2.28247 3.38242 2.24614 3.58446 2.25114 3.78759C2.25614 3.99073 2.30237 4.19073 2.387 4.37547C2.47164 4.5602 2.59293 4.72581 2.74351 4.86225M4.86226 2.7435C5.1208 3.02883 5.25971 3.40267 5.25023 3.78759C5.24076 4.17252 5.08362 4.53907 4.81135 4.81133C4.53908 5.0836 4.17254 5.24074 3.78761 5.25022C3.40268 5.2597 3.02885 5.12079 2.74351 4.86225M4.86226 2.7435C6.08872 1.93006 7.52832 1.49742 9.00001 1.5C13.1423 1.5 16.5 4.85775 16.5 9C16.5025 10.4665 16.0729 11.9012 15.2648 13.125M2.74351 4.86225C1.93007 6.08871 1.49744 7.5283 1.50001 9C1.50001 13.1422 4.85776 16.5 9.00001 16.5C10.4717 16.5026 11.9113 16.0699 13.1378 15.2565M13.1378 15.2565C13.4047 15.5515 13.7779 15.7283 14.1752 15.7482C14.5726 15.768 14.9615 15.6292 15.2565 15.3622C15.5515 15.0953 15.7284 14.7221 15.7482 14.3248C15.768 13.9274 15.6292 13.5385 15.3623 13.2435C15.2301 13.0974 15.0704 12.9788 14.8924 12.8945C14.7144 12.8101 14.5215 12.7616 14.3248 12.7518C14.128 12.742 13.9313 12.771 13.7458 12.8372C13.5602 12.9035 13.3896 13.0056 13.2435 13.1377C13.0974 13.2699 12.9789 13.4296 12.8945 13.6076C12.8101 13.7856 12.7616 13.9785 12.7518 14.1752C12.732 14.5726 12.8708 14.9615 13.1378 15.2565Z" stroke="white" stroke-width="1.5" stroke-linecap="round" stroke-linejoin="round"/>
</svg>
