<svg width="10" height="10" viewBox="0 0 10 10" fill="none" xmlns="http://www.w3.org/2000/svg">
<path d="M4.56648 1.5335C4.77123 1.3445 4.87398 1.25 4.99998 1.25C5.12598 1.25 5.22873 1.3445 5.43348 1.5335L5.78298 1.856C5.89023 1.95575 5.94423 2.00525 6.01248 2.02625C6.08148 2.04725 6.15498 2.0375 6.30348 2.01725L6.78498 1.95275C7.06698 1.9145 7.20873 1.89575 7.30998 1.96625C7.41273 2.03675 7.43748 2.171 7.48623 2.43875L7.57023 2.8955C7.59648 3.0365 7.60923 3.10625 7.65198 3.1625C7.69398 3.218 7.75998 3.251 7.89198 3.3185L8.32173 3.536C8.57373 3.6635 8.69973 3.7265 8.73873 3.84125C8.77773 3.956 8.71473 4.0775 8.58948 4.322L8.37648 4.739C8.31048 4.8665 8.27748 4.931 8.27748 5C8.27748 5.069 8.31048 5.13275 8.37648 5.261L8.58948 5.678C8.71473 5.9225 8.77698 6.04475 8.73873 6.15875C8.69973 6.2735 8.57373 6.33725 8.32173 6.46475L7.89198 6.68225C7.75998 6.749 7.69398 6.782 7.65198 6.8375C7.60923 6.89375 7.59648 6.9635 7.57023 7.1045L7.48623 7.56125C7.43748 7.829 7.41273 7.96325 7.31073 8.03375C7.20873 8.10425 7.06698 8.0855 6.78498 8.04725L6.30348 7.98275C6.15573 7.9625 6.08148 7.95275 6.01248 7.97375C5.94423 7.99475 5.89023 8.045 5.78298 8.144L5.43348 8.4665C5.22873 8.6555 5.12598 8.75 4.99998 8.75C4.87398 8.75 4.77123 8.6555 4.56648 8.4665L4.21698 8.144C4.10973 8.04425 4.05573 7.99475 3.98748 7.97375C3.91848 7.95275 3.84498 7.9625 3.69648 7.98275L3.21498 8.04725C2.93298 8.0855 2.79123 8.10425 2.68998 8.03375C2.58723 7.96325 2.56248 7.829 2.51373 7.56125L2.42973 7.1045C2.40348 6.96425 2.39073 6.89375 2.34873 6.83825C2.30598 6.782 2.23998 6.74825 2.10798 6.6815L1.67823 6.464C1.42623 6.3365 1.30023 6.2735 1.26123 6.15875C1.22223 6.044 1.28523 5.9225 1.41048 5.678L1.62348 5.261C1.68948 5.1335 1.72248 5.069 1.72248 5C1.72248 4.931 1.68948 4.86725 1.62348 4.739L1.41048 4.322C1.28523 4.0775 1.22298 3.95525 1.26123 3.84125C1.30023 3.7265 1.42623 3.66275 1.67823 3.53525L2.10798 3.31775C2.23998 3.251 2.30598 3.218 2.34798 3.1625C2.39073 3.10625 2.40348 3.0365 2.42973 2.8955L2.51373 2.43875C2.56248 2.171 2.58723 2.03675 2.68923 1.96625C2.79123 1.89575 2.93298 1.9145 3.21498 1.95275L3.69648 2.01725C3.84423 2.0375 3.91848 2.04725 3.98748 2.02625C4.05573 2.00525 4.10973 1.95575 4.21698 1.856L4.56648 1.5335Z" stroke="white" stroke-width="1.5" stroke-linecap="round" stroke-linejoin="round"/>
</svg>
