<svg width="18" height="18" viewBox="0 0 18 18" fill="none" xmlns="http://www.w3.org/2000/svg">
<path d="M10.6834 10.6417L12.1 8.19166C12.1 8.19166 12.025 8.125 11.9084 8.04166L10.6834 7.075L10.675 7.09166C10.7 6.89166 10.7167 6.7 10.7167 6.5C10.7167 6.3 10.7 6.10833 10.6667 5.925L10.675 5.93333L12.1 4.81666L10.6834 2.35833L9.00838 3.03333V3.04166C8.70004 2.80833 8.36671 2.60833 8.00838 2.45833H8.01671L7.76671 0.666664H4.92504L4.66671 2.45833H4.67504C4.31671 2.60833 3.98337 2.80833 3.67504 3.04166V3.03333L2.00004 2.35833L0.583374 4.81666L2.00004 5.93333L2.00837 5.925C1.98337 6.10833 1.96671 6.3 1.96671 6.5C1.96671 6.7 1.98337 6.89166 2.00837 7.09166L2.00004 7.075L0.775041 8.04166C0.666707 8.125 0.583374 8.19166 0.583374 8.19166L2.00004 10.6417L3.68337 9.975L3.66671 9.95C3.97504 10.1917 4.30837 10.3917 4.67504 10.5417H4.66671L4.92504 12.3333H7.75837C7.75837 12.3333 7.77504 12.225 7.79171 12.0833L8.01671 10.5417H8.00838C8.37504 10.3917 8.70837 10.1917 9.01671 9.95L9.00004 9.975L10.6834 10.6417ZM6.34171 8.16666C5.42504 8.16666 4.67504 7.41666 4.67504 6.5C4.67504 5.58333 5.42504 4.83333 6.34171 4.83333C7.25837 4.83333 8.00838 5.58333 8.00838 6.5C8.00838 7.41666 7.25837 8.16666 6.34171 8.16666ZM16.4834 13.95L16.475 13.9583C16.4917 13.8333 16.5 13.7083 16.5 13.5833C16.5 13.4583 16.4917 13.3333 16.4667 13.2167L16.475 13.225L17.3917 12.5083L16.4834 10.925L15.4084 11.3583V11.3667C15.2084 11.2167 15 11.0917 14.7667 10.9917H14.775L14.6084 9.83333H12.7834L12.6167 10.9833H12.625C12.3917 11.0833 12.1834 11.2083 11.9834 11.3583V11.35L10.9084 10.9167L10 12.5L10.9084 13.2167L10.9167 13.2083C10.9 13.325 10.8917 13.45 10.8917 13.575C10.8917 13.7 10.9 13.825 10.9167 13.9583L10.9084 13.95L10.125 14.575C10.0584 14.625 10 14.675 10 14.675L10.9084 16.25L11.9917 15.825L11.9834 15.8083C12.1834 15.9667 12.4 16.0917 12.6334 16.1917H12.625L12.7917 17.3417H14.6167C14.6167 17.3417 14.625 17.275 14.6417 17.1833L14.7834 16.1917H14.775C15.0084 16.0917 15.225 15.9667 15.425 15.8083L15.4167 15.825L16.5 16.25L17.4084 14.675C17.4084 14.675 17.3584 14.6333 17.2834 14.575L16.4834 13.95ZM13.6917 14.6583C13.1 14.6583 12.6167 14.175 12.6167 13.5833C12.6167 12.9917 13.1 12.5083 13.6917 12.5083C14.2834 12.5083 14.7667 12.9917 14.7667 13.5833C14.7667 14.175 14.2834 14.6583 13.6917 14.6583Z" fill="white"/>
</svg>
