<svg width="21" height="20" viewBox="0 0 21 20" fill="none" xmlns="http://www.w3.org/2000/svg">
<path d="M19.125 9.5V13.8125H1.875V2.3125H6.90625V0.875H1.875C1.49375 0.875 1.12812 1.02645 0.858534 1.29603C0.58895 1.56562 0.4375 1.93125 0.4375 2.3125V13.8125C0.4375 14.1937 0.58895 14.5594 0.858534 14.829C1.12812 15.0985 1.49375 15.25 1.875 15.25H7.625V18.125H4.75V19.5625H16.25V18.125H13.375V15.25H19.125C19.5062 15.25 19.8719 15.0985 20.1415 14.829C20.411 14.5594 20.5625 14.1937 20.5625 13.8125V9.5H19.125ZM11.9375 18.125H9.0625V15.25H11.9375V18.125Z" fill="white"/>
</svg>
