<svg width="22" height="20" viewBox="0 0 22 20" fill="none" xmlns="http://www.w3.org/2000/svg">
<path d="M13.02 11.97L14.72 9.03C14.72 9.03 14.63 8.95 14.49 8.85L13.02 7.69L13.01 7.71C13.04 7.47 13.06 7.24 13.06 7C13.06 6.76 13.04 6.53 13 6.31L13.01 6.32L14.72 4.98L13.02 2.03L11.01 2.84V2.85C10.64 2.57 10.24 2.33 9.81003 2.15H9.82002L9.52003 0H6.11002L5.80002 2.15H5.81002C5.38002 2.33 4.98002 2.57 4.61002 2.85V2.84L2.60002 2.03L0.900024 4.98L2.60002 6.32L2.61002 6.31C2.58002 6.53 2.56002 6.76 2.56002 7C2.56002 7.24 2.58002 7.47 2.61002 7.71L2.60002 7.69L1.13002 8.85C1.00002 8.95 0.900024 9.03 0.900024 9.03L2.60002 11.97L4.62002 11.17L4.60002 11.14C4.97002 11.43 5.37002 11.67 5.81002 11.85H5.80002L6.11002 14H9.51003C9.51003 14 9.53002 13.87 9.55002 13.7L9.82002 11.85H9.81003C10.25 11.67 10.65 11.43 11.02 11.14L11 11.17L13.02 11.97ZM7.81002 9C6.71002 9 5.81002 8.1 5.81002 7C5.81002 5.9 6.71002 5 7.81002 5C8.91002 5 9.81003 5.9 9.81003 7C9.81003 8.1 8.91002 9 7.81002 9ZM19.98 15.94L19.97 15.95C19.99 15.8 20 15.65 20 15.5C20 15.35 19.99 15.2 19.96 15.06L19.97 15.07L21.07 14.21L19.98 12.31L18.69 12.83V12.84C18.45 12.66 18.2 12.51 17.92 12.39H17.93L17.73 11H15.54L15.34 12.38H15.35C15.07 12.5 14.82 12.65 14.58 12.83V12.82L13.29 12.3L12.2 14.2L13.29 15.06L13.3 15.05C13.28 15.19 13.27 15.34 13.27 15.49C13.27 15.64 13.28 15.79 13.3 15.95L13.29 15.94L12.35 16.69C12.27 16.75 12.2 16.81 12.2 16.81L13.29 18.7L14.59 18.19L14.58 18.17C14.82 18.36 15.08 18.51 15.36 18.63H15.35L15.55 20.01H17.74C17.74 20.01 17.75 19.93 17.77 19.82L17.94 18.63H17.93C18.21 18.51 18.47 18.36 18.71 18.17L18.7 18.19L20 18.7L21.09 16.81C21.09 16.81 21.03 16.76 20.94 16.69L19.98 15.94ZM16.63 16.79C15.92 16.79 15.34 16.21 15.34 15.5C15.34 14.79 15.92 14.21 16.63 14.21C17.34 14.21 17.92 14.79 17.92 15.5C17.92 16.21 17.34 16.79 16.63 16.79Z" fill="white"/>
</svg>
